<mxfile modified="2024-06-02T14:40:27.729Z" host="app.diagrams.net" agent="Mozilla/5.0 (X11; Linux x86_64) AppleWebKit/537.36 (KHTML, like Gecko) Chrome/125.0.0.0 Safari/537.36" etag="clfcA11DiuLCnmX1VUEN" version="24.4.13" type="device">
  <diagram id="Ht1M8jgEwFfnCIfOTk4-" name="Page-1">
    <mxGraphModel dx="821" dy="1108" grid="1" gridSize="10" guides="1" tooltips="1" connect="1" arrows="1" fold="1" page="1" pageScale="1" pageWidth="1200" pageHeight="1600" math="0" shadow="0">
      <root>
        <mxCell id="0" />
        <mxCell id="1" parent="0" />
        <mxCell id="LxA9hHt_j8gLE36cf1-l-6" style="edgeStyle=orthogonalEdgeStyle;rounded=0;orthogonalLoop=1;jettySize=auto;html=1;exitX=1;exitY=0.5;exitDx=0;exitDy=0;strokeColor=default;endArrow=none;endFill=0;" parent="1" source="jbLp8YqKWLg5VAXUempC-11" target="cCu9iCcWDtGHKt17EXL8-7" edge="1">
          <mxGeometry relative="1" as="geometry">
            <Array as="points">
              <mxPoint x="550" y="780" />
            </Array>
          </mxGeometry>
        </mxCell>
        <mxCell id="jbLp8YqKWLg5VAXUempC-11" value="" style="rounded=0;whiteSpace=wrap;html=1;" parent="1" vertex="1">
          <mxGeometry x="110" y="660" width="360" height="240" as="geometry" />
        </mxCell>
        <mxCell id="cCu9iCcWDtGHKt17EXL8-2" value="User Application" style="verticalLabelPosition=bottom;html=1;verticalAlign=top;align=center;strokeColor=none;fillColor=#00BEF2;shape=mxgraph.azure.mobile;pointerEvents=1;" parent="1" vertex="1">
          <mxGeometry x="693.25" y="201.5" width="35" height="50" as="geometry" />
        </mxCell>
        <mxCell id="cCu9iCcWDtGHKt17EXL8-3" value="Amazon Cognito" style="outlineConnect=0;dashed=0;verticalLabelPosition=bottom;verticalAlign=top;align=center;html=1;shape=mxgraph.aws3.cognito;fillColor=#AD688B;gradientColor=none;" parent="1" vertex="1">
          <mxGeometry x="833.25" y="180" width="76.5" height="93" as="geometry" />
        </mxCell>
        <mxCell id="cCu9iCcWDtGHKt17EXL8-5" value="API Gateway" style="outlineConnect=0;dashed=0;verticalLabelPosition=bottom;verticalAlign=top;align=center;html=1;shape=mxgraph.aws3.api_gateway;fillColor=#D9A741;gradientColor=none;" parent="1" vertex="1">
          <mxGeometry x="519.25" y="180" width="76.5" height="93" as="geometry" />
        </mxCell>
        <mxCell id="cCu9iCcWDtGHKt17EXL8-7" value="AWS Lambda" style="outlineConnect=0;dashed=0;verticalLabelPosition=bottom;verticalAlign=top;align=center;html=1;shape=mxgraph.aws3.lambda_function;fillColor=#F58534;gradientColor=none;" parent="1" vertex="1">
          <mxGeometry x="523" y="360" width="69" height="72" as="geometry" />
        </mxCell>
        <mxCell id="cCu9iCcWDtGHKt17EXL8-8" value="AWS Personalize" style="sketch=0;points=[[0,0,0],[0.25,0,0],[0.5,0,0],[0.75,0,0],[1,0,0],[0,1,0],[0.25,1,0],[0.5,1,0],[0.75,1,0],[1,1,0],[0,0.25,0],[0,0.5,0],[0,0.75,0],[1,0.25,0],[1,0.5,0],[1,0.75,0]];outlineConnect=0;fontColor=#232F3E;fillColor=#01A88D;strokeColor=#ffffff;dashed=0;verticalLabelPosition=bottom;verticalAlign=top;align=center;html=1;fontSize=12;fontStyle=0;aspect=fixed;shape=mxgraph.aws4.resourceIcon;resIcon=mxgraph.aws4.personalize;" parent="1" vertex="1">
          <mxGeometry x="288.5" y="357" width="78" height="78" as="geometry" />
        </mxCell>
        <mxCell id="cCu9iCcWDtGHKt17EXL8-11" value="" style="edgeStyle=orthogonalEdgeStyle;html=1;endArrow=block;elbow=vertical;startArrow=block;startFill=1;endFill=1;strokeColor=#545B64;rounded=0;" parent="1" source="cCu9iCcWDtGHKt17EXL8-2" target="cCu9iCcWDtGHKt17EXL8-5" edge="1">
          <mxGeometry width="100" relative="1" as="geometry">
            <mxPoint x="500" y="310" as="sourcePoint" />
            <mxPoint x="600" y="310" as="targetPoint" />
          </mxGeometry>
        </mxCell>
        <mxCell id="cCu9iCcWDtGHKt17EXL8-12" value="" style="edgeStyle=orthogonalEdgeStyle;html=1;endArrow=block;elbow=vertical;startArrow=block;startFill=1;endFill=1;strokeColor=#545B64;rounded=0;" parent="1" source="cCu9iCcWDtGHKt17EXL8-3" target="cCu9iCcWDtGHKt17EXL8-2" edge="1">
          <mxGeometry width="100" relative="1" as="geometry">
            <mxPoint x="720.25" y="261.5" as="sourcePoint" />
            <mxPoint x="721.25" y="331.5" as="targetPoint" />
          </mxGeometry>
        </mxCell>
        <mxCell id="cCu9iCcWDtGHKt17EXL8-13" value="" style="edgeStyle=orthogonalEdgeStyle;html=1;endArrow=block;elbow=vertical;startArrow=block;startFill=1;endFill=1;strokeColor=#545B64;rounded=0;" parent="1" source="cCu9iCcWDtGHKt17EXL8-7" target="cCu9iCcWDtGHKt17EXL8-5" edge="1">
          <mxGeometry width="100" relative="1" as="geometry">
            <mxPoint x="756.5" y="340" as="sourcePoint" />
            <mxPoint x="651.5" y="340" as="targetPoint" />
            <Array as="points">
              <mxPoint x="490" y="396" />
              <mxPoint x="490" y="226.5" />
            </Array>
          </mxGeometry>
        </mxCell>
        <mxCell id="cCu9iCcWDtGHKt17EXL8-14" value="" style="edgeStyle=orthogonalEdgeStyle;html=1;endArrow=block;elbow=vertical;startArrow=block;startFill=1;endFill=1;strokeColor=#545B64;rounded=0;entryX=1;entryY=0.5;entryDx=0;entryDy=0;entryPerimeter=0;" parent="1" source="cCu9iCcWDtGHKt17EXL8-7" target="cCu9iCcWDtGHKt17EXL8-8" edge="1">
          <mxGeometry width="100" relative="1" as="geometry">
            <mxPoint x="567" y="370" as="sourcePoint" />
            <mxPoint x="370" y="396" as="targetPoint" />
          </mxGeometry>
        </mxCell>
        <mxCell id="cCu9iCcWDtGHKt17EXL8-15" value="Amazon S3" style="outlineConnect=0;dashed=0;verticalLabelPosition=bottom;verticalAlign=top;align=center;html=1;shape=mxgraph.aws3.s3;fillColor=#E05243;gradientColor=none;" parent="1" vertex="1">
          <mxGeometry x="288.5" y="471.75" width="76.5" height="93" as="geometry" />
        </mxCell>
        <mxCell id="cCu9iCcWDtGHKt17EXL8-16" value="" style="edgeStyle=orthogonalEdgeStyle;html=1;endArrow=block;elbow=vertical;startArrow=block;startFill=1;endFill=1;strokeColor=#545B64;rounded=0;movable=1;resizable=1;rotatable=1;deletable=1;editable=1;locked=0;connectable=1;entryX=1;entryY=0.5;entryDx=0;entryDy=0;entryPerimeter=0;" parent="1" source="cCu9iCcWDtGHKt17EXL8-7" target="cCu9iCcWDtGHKt17EXL8-15" edge="1">
          <mxGeometry width="100" relative="1" as="geometry">
            <mxPoint x="574.9957142857143" y="460" as="sourcePoint" />
            <mxPoint x="385.01" y="585.0285714285715" as="targetPoint" />
          </mxGeometry>
        </mxCell>
        <mxCell id="cCu9iCcWDtGHKt17EXL8-17" value="Github/Lab" style="verticalLabelPosition=bottom;html=1;verticalAlign=top;align=center;strokeColor=none;fillColor=#00BEF2;shape=mxgraph.azure.git_repository;" parent="1" vertex="1">
          <mxGeometry x="719.75" y="371" width="50" height="50" as="geometry" />
        </mxCell>
        <mxCell id="cCu9iCcWDtGHKt17EXL8-18" value="" style="edgeStyle=orthogonalEdgeStyle;html=1;endArrow=block;elbow=vertical;startArrow=block;startFill=1;endFill=1;strokeColor=#545B64;rounded=0;movable=1;resizable=1;rotatable=1;deletable=1;editable=1;locked=0;connectable=1;exitX=0;exitY=0.5;exitDx=0;exitDy=0;exitPerimeter=0;" parent="1" source="cCu9iCcWDtGHKt17EXL8-17" target="cCu9iCcWDtGHKt17EXL8-7" edge="1">
          <mxGeometry width="100" relative="1" as="geometry">
            <mxPoint x="795" y="470" as="sourcePoint" />
            <mxPoint x="640" y="624" as="targetPoint" />
          </mxGeometry>
        </mxCell>
        <mxCell id="cCu9iCcWDtGHKt17EXL8-25" value="CD/CI" style="edgeLabel;html=1;align=center;verticalAlign=middle;resizable=0;points=[];" parent="cCu9iCcWDtGHKt17EXL8-18" vertex="1" connectable="0">
          <mxGeometry x="-0.4168" y="2" relative="1" as="geometry">
            <mxPoint as="offset" />
          </mxGeometry>
        </mxCell>
        <mxCell id="cCu9iCcWDtGHKt17EXL8-19" value="AWS SNS" style="outlineConnect=0;dashed=0;verticalLabelPosition=bottom;verticalAlign=top;align=center;html=1;shape=mxgraph.aws3.sns;fillColor=#D9A741;gradientColor=none;" parent="1" vertex="1">
          <mxGeometry x="719.75" y="480" width="76.5" height="76.5" as="geometry" />
        </mxCell>
        <mxCell id="cCu9iCcWDtGHKt17EXL8-20" value="" style="edgeStyle=orthogonalEdgeStyle;html=1;endArrow=block;elbow=vertical;startArrow=block;startFill=1;endFill=1;strokeColor=#545B64;rounded=0;movable=1;resizable=1;rotatable=1;deletable=1;editable=1;locked=0;connectable=1;exitX=0;exitY=0.48;exitDx=0;exitDy=0;exitPerimeter=0;" parent="1" source="cCu9iCcWDtGHKt17EXL8-19" target="cCu9iCcWDtGHKt17EXL8-7" edge="1">
          <mxGeometry width="100" relative="1" as="geometry">
            <mxPoint x="581" y="540" as="sourcePoint" />
            <mxPoint x="480" y="540" as="targetPoint" />
            <Array as="points">
              <mxPoint x="640" y="517" />
              <mxPoint x="640" y="396" />
            </Array>
          </mxGeometry>
        </mxCell>
        <mxCell id="cCu9iCcWDtGHKt17EXL8-24" value="" style="edgeStyle=orthogonalEdgeStyle;html=1;endArrow=block;elbow=vertical;startArrow=block;startFill=1;endFill=1;strokeColor=#545B64;rounded=0;movable=1;resizable=1;rotatable=1;deletable=1;editable=1;locked=0;connectable=1;exitX=0;exitY=0.5;exitDx=0;exitDy=0;" parent="1" source="cCu9iCcWDtGHKt17EXL8-26" target="cCu9iCcWDtGHKt17EXL8-7" edge="1">
          <mxGeometry width="100" relative="1" as="geometry">
            <mxPoint x="719.75" y="629" as="sourcePoint" />
            <mxPoint x="565.25" y="520" as="targetPoint" />
            <Array as="points">
              <mxPoint x="640" y="620" />
              <mxPoint x="640" y="396" />
            </Array>
          </mxGeometry>
        </mxCell>
        <mxCell id="cCu9iCcWDtGHKt17EXL8-26" value="TEDx Data" style="shape=image;verticalLabelPosition=bottom;labelBackgroundColor=default;verticalAlign=top;aspect=fixed;imageAspect=0;image=data:image/svg+xml,PHN2ZyB4bWxucz0iaHR0cDovL3d3dy53My5vcmcvMjAwMC9zdmciIGhlaWdodD0iNjQuNTk5OTk4IiB3aWR0aD0iMjIxLjYwMDAxIiB4bWw6c3BhY2U9InByZXNlcnZlIiB2aWV3Qm94PSIwIDAgMjIxLjYwMDAxIDY0LjU5OTk5OCIgeT0iMHB4IiB4PSIwcHgiIGlkPSJrYXRtYW5fMSIgdmVyc2lvbj0iMS4wIj48ZGVmcyBpZD0iZGVmczQiLz4mI3hhOzxzdHlsZSBpZD0ic3R5bGUxIiB0eXBlPSJ0ZXh0L2NzcyI+JiN4YTsJLnN0MHtmaWxsOiNFRTI5MjI7fSYjeGE7PC9zdHlsZT4mI3hhOzxwYXRoIGlkPSJwYXRoMSIgZD0iTSAxOC4xLDE2LjcgSCAwIFYgMC4xIEggNTYgViAxNi42IEggMzcuOSB2IDQ4IEggMTguMSBaIiBjbGFzcz0ic3QwIi8+JiN4YTs8cGF0aCBpZD0icGF0aDIiIGQ9Im0gNTkuMSwwLjEgaCA1NC40IFYgMTYuNiBIIDc5IHYgOCBoIDM0LjUgViA0MCBIIDc5IHYgOCBoIDM0LjUgViA2NC41IEggNTkuMSBaIiBjbGFzcz0ic3QwIi8+JiN4YTs8cGF0aCBpZD0icGF0aDMiIGQ9Im0gMTM2LjcsNDguMSBoIDcuOCBjIDEyLjQsMCAxNC4yLC0xMCAxNC4yLC0xNi4xIDAsLTQuMSAtMS4zLC0xNS4zIC0xNS42LC0xNS4zIGggLTYuMyB2IDMxLjQgeiBtIC0xOS45LC00OCBoIDMyLjYgYyAyMS41LDAgMjkuMSwxNS45IDI5LjEsMzIuMiAwLDE5LjggLTEwLjUsMzIuMyAtMzMsMzIuMyBoIC0yOC43IHoiIGNsYXNzPSJzdDAiLz4mI3hhOzxwYXRoIGlkPSJwYXRoNCIgZD0iTSAyMDcuMSwzOS44IDIwMSwyOS43IDE5NS4xLDM5LjggSCAxODAuNSBMIDE5NC4zLDE5LjQgMTgxLDAgaCAxNC42IEwgMjAxLDkuNiAyMDYuNSwwIGggMTQuNiBsIC0xMy4zLDE5LjQgMTMuOCwyMC4zIGggLTE0LjUgeiIgY2xhc3M9InN0MCIvPiYjeGE7PC9zdmc+;" parent="1" vertex="1">
          <mxGeometry x="728.25" y="600" width="136.62" height="40" as="geometry" />
        </mxCell>
        <mxCell id="jbLp8YqKWLg5VAXUempC-2" value="Commenti" style="outlineConnect=0;dashed=0;verticalLabelPosition=bottom;verticalAlign=top;align=center;html=1;shape=mxgraph.aws3.lambda_function;fillColor=#F58534;gradientColor=none;" parent="1" vertex="1">
          <mxGeometry x="210" y="670" width="69" height="72" as="geometry" />
        </mxCell>
        <mxCell id="jbLp8YqKWLg5VAXUempC-6" value="Iscrizioni" style="outlineConnect=0;dashed=0;verticalLabelPosition=bottom;verticalAlign=top;align=center;html=1;shape=mxgraph.aws3.lambda_function;fillColor=#F58534;gradientColor=none;" parent="1" vertex="1">
          <mxGeometry x="390" y="670" width="69" height="72" as="geometry" />
        </mxCell>
        <mxCell id="jbLp8YqKWLg5VAXUempC-7" value="Invio&lt;div&gt;notifiche&lt;/div&gt;" style="outlineConnect=0;dashed=0;verticalLabelPosition=bottom;verticalAlign=top;align=center;html=1;shape=mxgraph.aws3.lambda_function;fillColor=#F58534;gradientColor=none;" parent="1" vertex="1">
          <mxGeometry x="120" y="790" width="69" height="72" as="geometry" />
        </mxCell>
        <mxCell id="jbLp8YqKWLg5VAXUempC-8" value="Gestione domande&lt;div&gt;e risposte&lt;/div&gt;" style="outlineConnect=0;dashed=0;verticalLabelPosition=bottom;verticalAlign=top;align=center;html=1;shape=mxgraph.aws3.lambda_function;fillColor=#F58534;gradientColor=none;" parent="1" vertex="1">
          <mxGeometry x="210" y="790" width="69" height="72" as="geometry" />
        </mxCell>
        <mxCell id="jbLp8YqKWLg5VAXUempC-9" value="Traccia video&lt;div&gt;visto&lt;/div&gt;" style="outlineConnect=0;dashed=0;verticalLabelPosition=bottom;verticalAlign=top;align=center;html=1;shape=mxgraph.aws3.lambda_function;fillColor=#F58534;gradientColor=none;" parent="1" vertex="1">
          <mxGeometry x="300" y="790" width="69" height="72" as="geometry" />
        </mxCell>
        <mxCell id="jbLp8YqKWLg5VAXUempC-10" value="Prossimo&lt;div&gt;video&lt;/div&gt;" style="outlineConnect=0;dashed=0;verticalLabelPosition=bottom;verticalAlign=top;align=center;html=1;shape=mxgraph.aws3.lambda_function;fillColor=#F58534;gradientColor=none;" parent="1" vertex="1">
          <mxGeometry x="390" y="790" width="69" height="72" as="geometry" />
        </mxCell>
        <mxCell id="b7GfPlLDYod63dEjjIiY-2" value="MongoDB" style="dashed=0;outlineConnect=0;html=1;align=center;labelPosition=center;verticalLabelPosition=bottom;verticalAlign=top;shape=mxgraph.weblogos.mongodb" vertex="1" parent="1">
          <mxGeometry x="323.8" y="230" width="41.2" height="86.2" as="geometry" />
        </mxCell>
        <mxCell id="b7GfPlLDYod63dEjjIiY-3" style="edgeStyle=orthogonalEdgeStyle;rounded=0;orthogonalLoop=1;jettySize=auto;html=1;entryX=0;entryY=0.5;entryDx=0;entryDy=0;entryPerimeter=0;startArrow=classic;startFill=1;" edge="1" parent="1" source="b7GfPlLDYod63dEjjIiY-2" target="cCu9iCcWDtGHKt17EXL8-7">
          <mxGeometry relative="1" as="geometry" />
        </mxCell>
        <mxCell id="b7GfPlLDYod63dEjjIiY-4" style="edgeStyle=orthogonalEdgeStyle;rounded=0;orthogonalLoop=1;jettySize=auto;html=1;entryX=1;entryY=0.5;entryDx=0;entryDy=0;entryPerimeter=0;startArrow=classic;startFill=1;" edge="1" parent="1" source="cCu9iCcWDtGHKt17EXL8-3" target="cCu9iCcWDtGHKt17EXL8-7">
          <mxGeometry relative="1" as="geometry">
            <Array as="points">
              <mxPoint x="872" y="320" />
              <mxPoint x="640" y="320" />
              <mxPoint x="640" y="396" />
            </Array>
          </mxGeometry>
        </mxCell>
        <mxCell id="b7GfPlLDYod63dEjjIiY-6" value="Risposta&lt;div&gt;domanda&lt;/div&gt;" style="outlineConnect=0;dashed=0;verticalLabelPosition=bottom;verticalAlign=top;align=center;html=1;shape=mxgraph.aws3.lambda_function;fillColor=#F58534;gradientColor=none;" vertex="1" parent="1">
          <mxGeometry x="120" y="670" width="69" height="72" as="geometry" />
        </mxCell>
      </root>
    </mxGraphModel>
  </diagram>
</mxfile>
